<?xml version="1.0" encoding="utf-8"?>
<!-- Generator: Adobe Illustrator 15.0.0, SVG Export Plug-In . SVG Version: 6.00 Build 0)  -->
<!DOCTYPE svg PUBLIC "-//W3C//DTD SVG 1.1//EN" "http://www.w3.org/Graphics/SVG/1.1/DTD/svg11.dtd">
<svg version="1.1" id="Layer_1" xmlns="http://www.w3.org/2000/svg" xmlns:xlink="http://www.w3.org/1999/xlink" x="0px" y="0px"
	 width="200px" height="200px" viewBox="0 0 200 200" enable-background="new 0 0 200 200" xml:space="preserve">
	 <g stroke = "black" stroke-width = "5" stroke-miterlimit="10">
		<line x1="80" y1="200" x2="80" y2="0"/>
		<line x1="120" y1="200" x2="120" y2="0"/>
		<line x1="6" y1="40" x2="61.75" y2="40"/>
		<line x1="194" y1="100" x2="120" y2="100"/>
		<rect x="190" y="95" width="10" height="10" stroke="none"/>
		<rect x="0" y="35" width="10" height="10" stroke="none"/>
		<polygon points="78,40 68,45 58,50 58,40 58,30 68,35 "/>
		<polygon points="78,160 68,165 58,170 58,160 58,150 68,155 "/>
		<line x1="6" y1="160" x2="61.75" y2="160"/>
		<rect x="0" y="155" width="10" height="10" stroke="none"/>
</g>
</svg>
